<svg data-v-fde0c5aa="" xmlns="http://www.w3.org/2000/svg" viewBox="0 0 300 300" class="iconLeft"><!----><defs data-v-fde0c5aa=""><!----></defs><rect data-v-fde0c5aa="" fill="#DFE9EC" x="0" y="0" width="300px" height="300px" class="logo-background-square"></rect><defs data-v-fde0c5aa=""><!----></defs><g data-v-fde0c5aa="" id="fd2dd10c-1056-41ef-9bbf-9817949bf55e" fill="#12292A" transform="matrix(1.1533746770889843,0,0,1.1533746770889843,127.83479643571339,139.14097718421903)"><path d="M8.01 3.78L8.01 4.83L4.79 4.83L4.79 13.02L3.67 13.02L3.67 4.83L0.45 4.83L0.45 3.78L8.01 3.78ZM14.08 12.21L14.08 12.21Q14.36 12.21 14.64 12.14L14.64 12.14L14.57 13.02L14.57 13.02Q14.18 13.16 13.73 13.16L13.73 13.16L13.73 13.16Q13.19 13.16 12.87 12.92L12.87 12.92L12.87 12.92Q12.56 12.68 12.47 12.12L12.47 12.12L12.47 12.12Q12.15 12.61 11.53 12.89L11.53 12.89L11.53 12.89Q10.91 13.16 10.22 13.16L10.22 13.16L10.22 13.16Q9.18 13.16 8.51 12.68L8.51 12.68L8.51 12.68Q7.84 12.19 7.84 11.28L7.84 11.28L7.84 11.28Q7.84 10.49 8.54 9.90L8.54 9.90L8.54 9.90Q9.24 9.32 10.57 9.10L10.57 9.10L12.43 8.79L12.43 8.40L12.43 8.40Q12.43 7.70 12.00 7.28L12.00 7.28L12.00 7.28Q11.56 6.86 10.79 6.86L10.79 6.86L10.79 6.86Q10.09 6.86 9.58 7.20L9.58 7.20L9.58 7.20Q9.07 7.53 8.79 8.19L8.79 8.19L7.97 7.59L7.97 7.59Q8.25 6.80 9.01 6.34L9.01 6.34L9.01 6.34Q9.77 5.88 10.79 5.88L10.79 5.88L10.79 5.88Q12.04 5.88 12.80 6.48L12.80 6.48L12.80 6.48Q13.55 7.08 13.55 8.26L13.55 8.26L13.55 11.70L13.55 11.70Q13.55 11.96 13.68 12.08L13.68 12.08L13.68 12.08Q13.80 12.21 14.08 12.21L14.08 12.21ZM10.28 12.18L10.28 12.18Q11.16 12.18 11.79 11.76L11.79 11.76L11.79 11.76Q12.43 11.34 12.43 10.67L12.43 10.67L12.43 9.70L10.86 10.00L10.86 10.00Q9.93 10.16 9.46 10.48L9.46 10.48L9.46 10.48Q9.00 10.79 9.00 11.28L9.00 11.28L9.00 11.28Q9.00 11.72 9.34 11.95L9.34 11.95L9.34 11.95Q9.67 12.18 10.28 12.18L10.28 12.18ZM21.81 6.02L18.52 14.20L18.52 14.20Q18.12 15.20 17.61 15.62L17.61 15.62L17.61 15.62Q17.11 16.03 16.31 16.03L16.31 16.03L16.31 16.03Q15.78 16.03 15.42 15.89L15.42 15.89L15.42 15.89Q15.06 15.75 14.77 15.44L14.77 15.44L15.16 14.49L15.16 14.49Q15.57 15.05 16.30 15.05L16.30 15.05L16.30 15.05Q16.70 15.05 17.02 14.80L17.02 14.80L17.02 14.80Q17.33 14.56 17.57 13.92L17.57 13.92L17.93 13.01L15.01 6.02L16.28 6.02L18.03 10.58L18.47 11.83L18.97 10.44L20.61 6.02L21.81 6.02ZM24.42 2.80L24.42 11.14L24.42 11.14Q24.42 11.68 24.58 11.88L24.58 11.88L24.58 11.88Q24.74 12.08 25.17 12.08L25.17 12.08L25.17 12.08Q25.47 12.08 25.68 12.04L25.68 12.04L25.68 12.04Q25.90 12.00 26.19 11.89L26.19 11.89L26.01 12.96L26.01 12.96Q25.55 13.16 24.98 13.16L24.98 13.16L24.98 13.16Q24.12 13.16 23.71 12.70L23.71 12.70L23.71 12.70Q23.30 12.24 23.30 11.28L23.30 11.28L23.30 2.80L24.42 2.80ZM30.59 5.88L30.59 5.88Q32.17 5.88 33.08 6.85L33.08 6.85L33.08 6.85Q33.98 7.81 33.98 9.52L33.98 9.52L33.98 9.52Q33.98 11.23 33.08 12.19L33.08 12.19L33.08 12.19Q32.17 13.16 30.59 13.16L30.59 13.16L30.59 13.16Q29.01 13.16 28.11 12.19L28.11 12.19L28.11 12.19Q27.20 11.23 27.20 9.52L27.20 9.52L27.20 9.52Q27.20 7.81 28.11 6.85L28.11 6.85L28.11 6.85Q29.01 5.88 30.59 5.88L30.59 5.88ZM30.59 6.85L30.59 6.85Q29.53 6.85 28.92 7.56L28.92 7.56L28.92 7.56Q28.32 8.27 28.32 9.52L28.32 9.52L28.32 9.52Q28.32 10.77 28.92 11.48L28.92 11.48L28.92 11.48Q29.53 12.19 30.59 12.19L30.59 12.19L30.59 12.19Q31.65 12.19 32.26 11.48L32.26 11.48L32.26 11.48Q32.86 10.77 32.86 9.52L32.86 9.52L32.86 9.52Q32.86 8.27 32.26 7.56L32.26 7.56L32.26 7.56Q31.65 6.85 30.59 6.85L30.59 6.85ZM39.45 5.88L39.45 5.88Q39.96 5.88 40.22 6.02L40.22 6.02L40.00 7.11L40.00 7.11Q39.66 6.93 39.12 6.93L39.12 6.93L39.12 6.93Q38.67 6.93 38.24 7.19L38.24 7.19L38.24 7.19Q37.81 7.45 37.54 7.97L37.54 7.97L37.54 7.97Q37.27 8.50 37.27 9.24L37.27 9.24L37.27 13.02L36.15 13.02L36.15 6.02L37.06 6.02L37.21 7.17L37.21 7.17Q37.80 5.88 39.45 5.88L39.45 5.88ZM50.08 8.36L54.04 8.36L54.04 13.02L53.20 13.02L53.16 11.77L53.16 11.77Q52.75 12.45 52.02 12.80L52.02 12.80L52.02 12.80Q51.28 13.16 50.25 13.16L50.25 13.16L50.25 13.16Q48.94 13.16 47.98 12.58L47.98 12.58L47.98 12.58Q47.01 12.00 46.49 10.93L46.49 10.93L46.49 10.93Q45.96 9.86 45.96 8.40L45.96 8.40L45.96 8.40Q45.96 6.96 46.50 5.88L46.50 5.88L46.50 5.88Q47.04 4.80 48.01 4.22L48.01 4.22L48.01 4.22Q48.99 3.64 50.27 3.64L50.27 3.64L50.27 3.64Q51.65 3.64 52.54 4.16L52.54 4.16L52.54 4.16Q53.42 4.68 53.97 5.75L53.97 5.75L52.95 6.31L52.95 6.31Q52.64 5.53 51.95 5.11L51.95 5.11L51.95 5.11Q51.25 4.69 50.27 4.69L50.27 4.69L50.27 4.69Q49.34 4.69 48.63 5.14L48.63 5.14L48.63 5.14Q47.92 5.59 47.53 6.42L47.53 6.42L47.53 6.42Q47.14 7.25 47.14 8.40L47.14 8.40L47.14 8.40Q47.14 10.16 47.95 11.14L47.95 11.14L47.95 11.14Q48.76 12.11 50.29 12.11L50.29 12.11L50.29 12.11Q51.49 12.11 52.26 11.49L52.26 11.49L52.26 11.49Q53.02 10.88 53.02 9.73L53.02 9.73L53.02 9.41L50.08 9.41L50.08 8.36ZM57.01 4.68L57.01 4.68Q56.63 4.68 56.40 4.44L56.40 4.44L56.40 4.44Q56.17 4.21 56.17 3.84L56.17 3.84L56.17 3.84Q56.17 3.46 56.40 3.23L56.40 3.23L56.40 3.23Q56.63 3.00 57.01 3.00L57.01 3.00L57.01 3.00Q57.39 3.00 57.62 3.23L57.62 3.23L57.62 3.23Q57.85 3.46 57.85 3.84L57.85 3.84L57.85 3.84Q57.85 4.21 57.62 4.44L57.62 4.44L57.62 4.44Q57.39 4.68 57.01 4.68L57.01 4.68ZM57.57 6.02L57.57 13.02L56.45 13.02L56.45 6.02L57.57 6.02ZM61.24 2.80L61.24 11.14L61.24 11.14Q61.24 11.68 61.40 11.88L61.40 11.88L61.40 11.88Q61.56 12.08 61.99 12.08L61.99 12.08L61.99 12.08Q62.29 12.08 62.50 12.04L62.50 12.04L62.50 12.04Q62.72 12.00 63.01 11.89L63.01 11.89L62.83 12.96L62.83 12.96Q62.37 13.16 61.80 13.16L61.80 13.16L61.80 13.16Q60.94 13.16 60.53 12.70L60.53 12.70L60.53 12.70Q60.12 12.24 60.12 11.28L60.12 11.28L60.12 2.80L61.24 2.80ZM67.90 5.88L67.90 5.88Q69.37 5.88 70.23 6.85L70.23 6.85L70.23 6.85Q71.09 7.83 71.09 9.52L71.09 9.52L71.09 9.52Q71.09 11.21 70.23 12.19L70.23 12.19L70.23 12.19Q69.37 13.16 67.90 13.16L67.90 13.16L67.90 13.16Q67.09 13.16 66.45 12.79L66.45 12.79L66.45 12.79Q65.81 12.42 65.51 11.80L65.51 11.80L65.44 13.02L64.46 13.02L64.46 2.80L65.58 2.80L65.58 7.11L65.58 7.11Q65.91 6.55 66.52 6.22L66.52 6.22L66.52 6.22Q67.13 5.88 67.90 5.88L67.90 5.88ZM67.77 12.18L67.77 12.18Q68.80 12.18 69.38 11.46L69.38 11.46L69.38 11.46Q69.97 10.74 69.97 9.52L69.97 9.52L69.97 9.52Q69.97 8.30 69.38 7.58L69.38 7.58L69.38 7.58Q68.80 6.86 67.77 6.86L67.77 6.86L67.77 6.86Q66.77 6.86 66.17 7.56L66.17 7.56L66.17 7.56Q65.58 8.26 65.58 9.44L65.58 9.44L65.58 9.60L65.58 9.60Q65.58 10.78 66.17 11.48L66.17 11.48L66.17 11.48Q66.77 12.18 67.77 12.18L67.77 12.18ZM79.28 9.16L79.28 9.16Q79.28 9.55 79.23 9.94L79.23 9.94L73.95 9.94L73.95 9.94Q74.05 11.00 74.66 11.59L74.66 11.59L74.66 11.59Q75.26 12.18 76.23 12.18L76.23 12.18L76.23 12.18Q77 12.18 77.51 11.91L77.51 11.91L77.51 11.91Q78.02 11.65 78.20 11.14L78.20 11.14L79.14 11.63L79.14 11.63Q78.72 12.38 78.02 12.77L78.02 12.77L78.02 12.77Q77.32 13.16 76.23 13.16L76.23 13.16L76.23 13.16Q74.65 13.16 73.75 12.19L73.75 12.19L73.75 12.19Q72.84 11.23 72.84 9.52L72.84 9.52L72.84 9.52Q72.84 7.81 73.70 6.85L73.70 6.85L73.70 6.85Q74.56 5.88 76.15 5.88L76.15 5.88L76.15 5.88Q77.13 5.88 77.84 6.31L77.84 6.31L77.84 6.31Q78.55 6.75 78.92 7.49L78.92 7.49L78.92 7.49Q79.28 8.23 79.28 9.16L79.28 9.16ZM76.15 6.86L76.15 6.86Q75.22 6.86 74.66 7.41L74.66 7.41L74.66 7.41Q74.09 7.95 73.96 8.95L73.96 8.95L78.20 8.95L78.20 8.95Q78.09 7.97 77.56 7.41L77.56 7.41L77.56 7.41Q77.03 6.86 76.15 6.86L76.15 6.86ZM84.71 5.88L84.71 5.88Q85.22 5.88 85.48 6.02L85.48 6.02L85.26 7.11L85.26 7.11Q84.92 6.93 84.38 6.93L84.38 6.93L84.38 6.93Q83.93 6.93 83.50 7.19L83.50 7.19L83.50 7.19Q83.08 7.45 82.80 7.97L82.80 7.97L82.80 7.97Q82.53 8.50 82.53 9.24L82.53 9.24L82.53 13.02L81.41 13.02L81.41 6.02L82.32 6.02L82.47 7.17L82.47 7.17Q83.06 5.88 84.71 5.88L84.71 5.88ZM90.59 11.59L90.99 12.53L90.99 12.53Q90.29 13.16 89.18 13.16L89.18 13.16L89.18 13.16Q88.33 13.16 87.79 12.70L87.79 12.70L87.79 12.70Q87.25 12.24 87.23 11.28L87.23 11.28L87.23 6.99L85.83 6.99L85.83 6.02L87.23 6.02L87.23 4.34L88.35 4.03L88.35 6.02L90.94 6.02L90.94 6.99L88.35 6.99L88.35 11.09L88.35 11.09Q88.35 11.59 88.64 11.85L88.64 11.85L88.64 11.85Q88.93 12.11 89.40 12.11L89.40 12.11L89.40 12.11Q90.08 12.11 90.59 11.59L90.59 11.59ZM94.95 13.16L94.95 13.16Q93.94 13.16 93.13 12.76L93.13 12.76L93.13 12.76Q92.32 12.36 91.94 11.58L91.94 11.58L92.85 10.95L92.85 10.95Q93.09 11.56 93.67 11.87L93.67 11.87L93.67 11.87Q94.26 12.18 95.06 12.18L95.06 12.18L95.06 12.18Q95.89 12.18 96.32 11.89L96.32 11.89L96.32 11.89Q96.75 11.59 96.75 11.14L96.75 11.14L96.75 11.14Q96.75 10.74 96.35 10.49L96.35 10.49L96.35 10.49Q95.94 10.25 94.92 10.07L94.92 10.07L94.92 10.07Q93.91 9.88 93.32 9.63L93.32 9.63L93.32 9.63Q92.74 9.37 92.47 8.97L92.47 8.97L92.47 8.97Q92.20 8.57 92.20 7.98L92.20 7.98L92.20 7.98Q92.20 7.41 92.54 6.93L92.54 6.93L92.54 6.93Q92.88 6.45 93.51 6.17L93.51 6.17L93.51 6.17Q94.14 5.88 94.96 5.88L94.96 5.88L94.96 5.88Q96.08 5.88 96.76 6.29L96.76 6.29L96.76 6.29Q97.44 6.71 97.73 7.56L97.73 7.56L96.78 8.12L96.78 8.12Q96.56 7.45 96.10 7.15L96.10 7.15L96.10 7.15Q95.65 6.86 94.96 6.86L94.96 6.86L94.96 6.86Q94.28 6.86 93.80 7.17L93.80 7.17L93.80 7.17Q93.32 7.48 93.32 7.88L93.32 7.88L93.32 7.88Q93.32 8.34 93.74 8.60L93.74 8.60L93.74 8.60Q94.15 8.85 95.21 9.03L95.21 9.03L95.21 9.03Q96.67 9.27 97.27 9.74L97.27 9.74L97.27 9.74Q97.87 10.22 97.87 11.09L97.87 11.09L97.87 11.09Q97.87 11.69 97.52 12.16L97.52 12.16L97.52 12.16Q97.16 12.63 96.50 12.89L96.50 12.89L96.50 12.89Q95.83 13.16 94.95 13.16L94.95 13.16ZM102.90 5.88L102.90 5.88Q104.48 5.88 105.39 6.85L105.39 6.85L105.39 6.85Q106.29 7.81 106.29 9.52L106.29 9.52L106.29 9.52Q106.29 11.23 105.39 12.19L105.39 12.19L105.39 12.19Q104.48 13.16 102.90 13.16L102.90 13.16L102.90 13.16Q101.32 13.16 100.42 12.19L100.42 12.19L100.42 12.19Q99.51 11.23 99.51 9.52L99.51 9.52L99.51 9.52Q99.51 7.81 100.42 6.85L100.42 6.85L100.42 6.85Q101.32 5.88 102.90 5.88L102.90 5.88ZM102.90 6.85L102.90 6.85Q101.84 6.85 101.23 7.56L101.23 7.56L101.23 7.56Q100.63 8.27 100.63 9.52L100.63 9.52L100.63 9.52Q100.63 10.77 101.23 11.48L101.23 11.48L101.23 11.48Q101.84 12.19 102.90 12.19L102.90 12.19L102.90 12.19Q103.96 12.19 104.57 11.48L104.57 11.48L104.57 11.48Q105.17 10.77 105.17 9.52L105.17 9.52L105.17 9.52Q105.17 8.27 104.57 7.56L104.57 7.56L104.57 7.56Q103.96 6.85 102.90 6.85L102.90 6.85ZM111.86 5.88L111.86 5.88Q113.05 5.88 113.82 6.57L113.82 6.57L113.82 6.57Q114.59 7.25 114.59 8.54L114.59 8.54L114.59 13.02L113.47 13.02L113.47 8.93L113.47 8.93Q113.47 7.84 113.00 7.35L113.00 7.35L113.00 7.35Q112.53 6.86 111.75 6.86L111.75 6.86L111.75 6.86Q111.19 6.86 110.70 7.10L110.70 7.10L110.70 7.10Q110.21 7.35 109.89 7.90L109.89 7.90L109.89 7.90Q109.58 8.46 109.58 9.30L109.58 9.30L109.58 13.02L108.46 13.02L108.46 6.02L109.44 6.02L109.51 7.11L109.51 7.11Q109.86 6.48 110.47 6.18L110.47 6.18L110.47 6.18Q111.09 5.88 111.86 5.88L111.86 5.88Z"></path></g><defs data-v-fde0c5aa=""><linearGradient data-v-fde0c5aa="" gradientTransform="rotate(25)" id="156ce232-5347-4889-8883-d6950140b637" x1="0%" y1="0%" x2="100%" y2="0%"><stop data-v-fde0c5aa="" offset="0%" stop-color="#122663" stop-opacity="1"></stop><stop data-v-fde0c5aa="" offset="100%" stop-color="#5DD7AD" stop-opacity="1"></stop></linearGradient></defs><g data-v-fde0c5aa="" id="0d28c568-d796-48a4-b7bd-bbc8f61da483" stroke="none" fill="url(#156ce232-5347-4889-8883-d6950140b637)" transform="matrix(0.7535381506102737,0,0,0.7535381506102737,40.00000033680285,138.55563933760646)"><path d="M94.85 1.121C94.85.502 94.348 0 93.729 0h-4.833c-.62 0-1.122.502-1.122 1.121v2.154L94.85 8.29V1.121zM12.958 16.227h-1.753a.414.414 0 0 0-.414.416v1.213c0 .23.186.415.414.415h1.753a.414.414 0 0 0 .414-.415v-1.213a.414.414 0 0 0-.414-.416zM16.637 16.227h-1.753a.415.415 0 0 0-.414.416v1.213c0 .23.187.415.414.415h1.753a.414.414 0 0 0 .414-.415v-1.213a.415.415 0 0 0-.414-.416zM20.315 16.227h-1.753a.414.414 0 0 0-.414.416v1.213c0 .23.186.415.414.415h1.753a.414.414 0 0 0 .414-.415v-1.213a.413.413 0 0 0-.414-.416zM22.242 18.271h1.752a.414.414 0 0 0 .414-.415v-1.213a.415.415 0 0 0-.414-.416h-1.752a.414.414 0 0 0-.415.416v1.213c0 .23.185.415.415.415z"></path><path d="M98.882 27.502h-4.264V13.205h3.174a.476.476 0 0 0 .274-.864L84.42 2.504c-.792-.561-1.554-.863-2.714-.863-1.159 0-2.52.935-2.52.935h-58.92s-1.241-.935-2.652-.935c-1.412 0-1.857.506-2.653.965L1.182 12.551c-.329.16-.215.654.15.654h3.877v14.298H1.12A1.12 1.12 0 0 0 0 28.624v.63a1.12 1.12 0 0 0 1.12 1.121h97.762A1.12 1.12 0 0 0 100 29.254v-.63c0-.62-.5-1.122-1.118-1.122zm-73.094 0H9.041V16.196a11.414 11.414 0 0 1 4.649-2.992 11.48 11.48 0 0 1 4.26-.604c1.081.05 2.154.25 3.188.604a11.415 11.415 0 0 1 4.648 2.992c.002 3.771.002 7.54.002 11.306zm1.242-14.261h-2.281l-7.163-4.818-7.163 4.818H8.141a.295.295 0 0 1-.201-.51l9.101-6.626a.799.799 0 0 1 1.091 0l9.101 6.626a.295.295 0 0 1-.203.51zm8.758 8.897a.746.746 0 0 1-.747.747h-3.154a.746.746 0 0 1-.747-.747V19.95c0-.412.334-.746.747-.746h3.154c.413 0 .747.334.747.746v2.188zm0-4.863a.746.746 0 0 1-.747.747h-3.154a.746.746 0 0 1-.747-.747v-2.187c0-.412.334-.747.747-.747h3.154c.413 0 .747.335.747.747v2.187zm5.734 4.863a.747.747 0 0 1-.747.747h-3.156a.746.746 0 0 1-.746-.747V19.95c0-.412.334-.746.746-.746h3.156c.412 0 .747.334.747.746v2.188zm0-4.863a.747.747 0 0 1-.747.747h-3.156a.746.746 0 0 1-.746-.747v-2.187c0-.412.334-.747.746-.747h3.156c.412 0 .747.335.747.747v2.187zm10.803 4.863a.747.747 0 0 1-.747.747h-3.156a.746.746 0 0 1-.746-.747V19.95c0-.412.334-.746.746-.746h3.156c.412 0 .747.334.747.746v2.188zm0-4.863a.747.747 0 0 1-.747.747h-3.156a.746.746 0 0 1-.746-.747v-2.187c0-.412.334-.747.746-.747h3.156c.412 0 .747.335.747.747v2.187zm5.734 4.863a.747.747 0 0 1-.748.747h-3.155a.746.746 0 0 1-.746-.747V19.95c0-.412.334-.746.746-.746h3.155c.414 0 .748.334.748.746v2.188zm0-4.863a.747.747 0 0 1-.748.747h-3.155a.746.746 0 0 1-.746-.747v-2.187c0-.412.334-.747.746-.747h3.155c.414 0 .748.335.748.747v2.187zm11.852 10.273h-6.628V15.946a4.543 4.543 0 0 1 6.628 0v11.602zm12.054-5.41a.747.747 0 0 1-.747.747h-3.155a.746.746 0 0 1-.746-.747V19.95c0-.412.334-.746.746-.746h3.155c.412 0 .747.334.747.746v2.188zm0-4.863a.747.747 0 0 1-.747.747h-3.155a.746.746 0 0 1-.746-.747v-2.187c0-.412.334-.747.746-.747h3.155c.412 0 .747.335.747.747v2.187zm5.734 4.863a.747.747 0 0 1-.748.747h-3.155a.746.746 0 0 1-.746-.747V19.95c0-.412.334-.746.746-.746h3.155c.413 0 .748.334.748.746v2.188zm0-4.863a.747.747 0 0 1-.748.747h-3.155a.746.746 0 0 1-.746-.747v-2.187c0-.412.334-.747.746-.747h3.155c.413 0 .748.335.748.747v2.187zm4.229-4.034h-2.282l-7.163-4.818-7.164 4.818h-2.283a.294.294 0 0 1-.198-.51l9.1-6.626a.798.798 0 0 1 1.09 0l9.102 6.626c.192.183.063.51-.202.51z"></path></g><!----></svg>