<svg width="220" height="24" viewBox="0 0 220 24" fill="none" xmlns="http://www.w3.org/2000/svg">
<path d="M97.0733 5.50073V6.71177H93.3595V16.1579H92.0677V6.71177H88.3538V5.50073H97.0733ZM104.074 15.2237C104.29 15.2237 104.505 15.1968 104.72 15.1429L104.639 16.1579C104.34 16.2656 104.017 16.3194 103.671 16.3194C103.255 16.3194 102.925 16.2271 102.679 16.0426C102.44 15.858 102.287 15.5505 102.217 15.1199C101.971 15.4966 101.61 15.7927 101.133 16.008C100.656 16.2156 100.153 16.3194 99.6223 16.3194C98.8226 16.3194 98.1652 16.1348 97.65 15.7658C97.1348 15.389 96.8773 14.8508 96.8773 14.151C96.8773 13.5436 97.1464 13.013 97.6846 12.5594C98.2229 12.1134 99.0033 11.8058 100.026 11.6367L102.171 11.2791V10.8293C102.171 10.2911 102.006 9.86049 101.675 9.53754C101.337 9.2146 100.872 9.05312 100.28 9.05312C99.7415 9.05312 99.2763 9.18384 98.8841 9.44527C98.492 9.69901 98.1883 10.0796 97.973 10.5871L97.0272 9.89509C97.2425 9.28764 97.6423 8.80707 98.2267 8.45337C98.8111 8.09967 99.4954 7.92282 100.28 7.92282C101.241 7.92282 102.014 8.15349 102.598 8.61484C103.175 9.07619 103.463 9.76053 103.463 10.6678V14.6355C103.463 14.8354 103.513 14.9815 103.613 15.0737C103.705 15.1737 103.859 15.2237 104.074 15.2237ZM99.6915 15.1891C100.368 15.1891 100.949 15.0276 101.433 14.7047C101.925 14.3817 102.171 13.9627 102.171 13.4475V12.3287L100.36 12.6747C99.6454 12.7977 99.1071 12.9823 98.7457 13.2283C98.392 13.4667 98.2152 13.7743 98.2152 14.151C98.2152 14.4894 98.3459 14.7469 98.6073 14.9238C98.8611 15.1007 99.2225 15.1891 99.6915 15.1891ZM112.99 8.08429L109.195 17.5189C108.888 18.2878 108.538 18.8337 108.146 19.1567C107.761 19.4719 107.261 19.6296 106.646 19.6296C106.239 19.6296 105.897 19.5757 105.62 19.4681C105.343 19.3604 105.093 19.1874 104.87 18.9491L105.32 17.8534C105.635 18.284 106.073 18.4993 106.635 18.4993C106.942 18.4993 107.219 18.4031 107.465 18.2109C107.704 18.0264 107.915 17.6881 108.1 17.1959L108.515 16.1464L105.147 8.08429H106.612L108.63 13.3437L109.138 14.7854L109.714 13.1822L111.606 8.08429H112.99ZM116 4.37042V13.9896C116 14.4048 116.062 14.6893 116.185 14.8431C116.308 14.9968 116.535 15.0737 116.865 15.0737C117.096 15.0737 117.292 15.0584 117.453 15.0276C117.623 14.9968 117.819 14.9392 118.042 14.8546L117.834 16.0887C117.48 16.2425 117.084 16.3194 116.646 16.3194C115.985 16.3194 115.497 16.1425 115.181 15.7888C114.866 15.4351 114.708 14.8892 114.708 14.151V4.37042H116ZM123.117 7.92282C124.331 7.92282 125.289 8.29574 125.988 9.04159C126.68 9.77975 127.026 10.8063 127.026 12.1211C127.026 13.4359 126.68 14.4625 125.988 15.2006C125.289 15.9465 124.331 16.3194 123.117 16.3194C121.902 16.3194 120.948 15.9465 120.256 15.2006C119.556 14.4625 119.207 13.4359 119.207 12.1211C119.207 10.8063 119.556 9.77975 120.256 9.04159C120.948 8.29574 121.902 7.92282 123.117 7.92282ZM123.117 9.04159C122.301 9.04159 121.659 9.31456 121.19 9.86049C120.729 10.4064 120.498 11.16 120.498 12.1211C120.498 13.0822 120.729 13.8358 121.19 14.3817C121.659 14.9276 122.301 15.2006 123.117 15.2006C123.932 15.2006 124.574 14.9276 125.043 14.3817C125.504 13.8358 125.735 13.0822 125.735 12.1211C125.735 11.16 125.504 10.4064 125.043 9.86049C124.574 9.31456 123.932 9.04159 123.117 9.04159ZM133.335 7.92282C133.728 7.92282 134.024 7.97664 134.224 8.08429L133.97 9.34147C133.708 9.20306 133.37 9.13386 132.955 9.13386C132.609 9.13386 132.27 9.23382 131.94 9.43374C131.609 9.63366 131.34 9.93353 131.132 10.3334C130.925 10.7409 130.821 11.2292 130.821 11.7982V16.1579H129.529V8.08429H130.579L130.752 9.41067C131.206 8.41877 132.067 7.92282 133.335 7.92282ZM145.596 10.7832H150.163V16.1579H149.194L149.148 14.7162C148.833 15.2391 148.395 15.635 147.833 15.9042C147.264 16.181 146.584 16.3194 145.792 16.3194C144.785 16.3194 143.912 16.0964 143.174 15.6504C142.428 15.2045 141.855 14.5701 141.455 13.7474C141.048 12.9246 140.844 11.9519 140.844 10.8293C140.844 9.72208 141.052 8.75325 141.467 7.92282C141.882 7.09239 142.462 6.45419 143.208 6.00821C143.962 5.56224 144.831 5.33926 145.815 5.33926C146.876 5.33926 147.749 5.53918 148.433 5.93901C149.11 6.33885 149.66 6.95014 150.082 7.77288L148.906 8.41877C148.668 7.81901 148.283 7.35766 147.753 7.03472C147.214 6.71177 146.568 6.5503 145.815 6.5503C145.1 6.5503 144.469 6.72331 143.923 7.06932C143.377 7.41533 142.955 7.90744 142.655 8.54564C142.355 9.18384 142.205 9.94507 142.205 10.8293C142.205 12.1826 142.516 13.236 143.139 13.9896C143.762 14.7354 144.662 15.1083 145.838 15.1083C146.761 15.1083 147.518 14.87 148.11 14.3932C148.695 13.9242 148.987 13.2476 148.987 12.3633V11.9942H145.596V10.7832ZM153.589 6.53877C153.297 6.53877 153.062 6.4465 152.885 6.26196C152.708 6.08511 152.62 5.85443 152.62 5.56993C152.62 5.27774 152.708 5.04322 152.885 4.86637C153.062 4.68952 153.297 4.6011 153.589 4.6011C153.881 4.6011 154.115 4.68952 154.292 4.86637C154.469 5.04322 154.558 5.27774 154.558 5.56993C154.558 5.85443 154.469 6.08511 154.292 6.26196C154.115 6.4465 153.881 6.53877 153.589 6.53877ZM154.235 8.08429V16.1579H152.943V8.08429H154.235ZM158.467 4.37042V13.9896C158.467 14.4048 158.529 14.6893 158.652 14.8431C158.775 14.9968 159.002 15.0737 159.332 15.0737C159.563 15.0737 159.759 15.0584 159.921 15.0276C160.09 14.9968 160.286 14.9392 160.509 14.8546L160.301 16.0887C159.948 16.2425 159.552 16.3194 159.113 16.3194C158.452 16.3194 157.964 16.1425 157.649 15.7888C157.333 15.4351 157.176 14.8892 157.176 14.151V4.37042H158.467ZM166.149 7.92282C167.279 7.92282 168.175 8.29574 168.836 9.04159C169.498 9.79513 169.828 10.8216 169.828 12.1211C169.828 13.4206 169.498 14.4471 168.836 15.2006C168.175 15.9465 167.279 16.3194 166.149 16.3194C165.526 16.3194 164.969 16.1771 164.477 15.8926C163.984 15.6081 163.623 15.2275 163.392 14.7508L163.312 16.1579H162.181V4.37042H163.473V9.34147C163.727 8.91087 164.088 8.56871 164.557 8.31496C165.026 8.05353 165.557 7.92282 166.149 7.92282ZM165.999 15.1891C166.791 15.1891 167.41 14.9123 167.856 14.3586C168.31 13.805 168.536 13.0592 168.536 12.1211C168.536 11.183 168.31 10.4372 167.856 9.88355C167.41 9.32993 166.791 9.05312 165.999 9.05312C165.23 9.05312 164.615 9.32224 164.154 9.86049C163.7 10.3987 163.473 11.1215 163.473 12.0288V12.2134C163.473 13.1207 163.7 13.8435 164.154 14.3817C164.615 14.92 165.23 15.1891 165.999 15.1891ZM179.274 11.7059C179.274 12.0058 179.255 12.3056 179.217 12.6055H173.127C173.204 13.4206 173.477 14.0549 173.946 14.5086C174.407 14.9622 175.011 15.1891 175.757 15.1891C176.349 15.1891 176.841 15.0853 177.233 14.8777C177.625 14.6777 177.89 14.3817 178.029 13.9896L179.113 14.5547C178.79 15.1314 178.359 15.5697 177.821 15.8696C177.283 16.1694 176.595 16.3194 175.757 16.3194C174.542 16.3194 173.588 15.9465 172.896 15.2006C172.196 14.4625 171.847 13.4359 171.847 12.1211C171.847 10.8063 172.177 9.77975 172.839 9.04159C173.5 8.29574 174.442 7.92282 175.664 7.92282C176.418 7.92282 177.068 8.08813 177.613 8.41877C178.159 8.75709 178.575 9.21075 178.859 9.77975C179.136 10.3487 179.274 10.9908 179.274 11.7059ZM175.664 9.05312C174.949 9.05312 174.376 9.26458 173.946 9.68748C173.507 10.1027 173.238 10.6948 173.138 11.4637H178.029C177.944 10.7101 177.698 10.1181 177.291 9.68748C176.883 9.26458 176.341 9.05312 175.664 9.05312ZM185.537 7.92282C185.929 7.92282 186.225 7.97664 186.425 8.08429L186.172 9.34147C185.91 9.20306 185.572 9.13386 185.157 9.13386C184.811 9.13386 184.472 9.23382 184.142 9.43374C183.819 9.63366 183.55 9.93353 183.334 10.3334C183.127 10.7409 183.023 11.2292 183.023 11.7982V16.1579H181.731V8.08429H182.781L182.954 9.41067C183.407 8.41877 184.268 7.92282 185.537 7.92282ZM192.319 14.5086L192.78 15.5928C192.242 16.0772 191.546 16.3194 190.693 16.3194C190.039 16.3194 189.505 16.1425 189.09 15.7888C188.674 15.4351 188.459 14.8892 188.444 14.151V9.20306H186.829V8.08429H188.444V6.14662L189.735 5.78907V8.08429H192.723V9.20306H189.735V13.9319C189.735 14.3164 189.847 14.6085 190.07 14.8085C190.293 15.0084 190.585 15.1083 190.947 15.1083C191.469 15.1083 191.927 14.9084 192.319 14.5086ZM197.348 16.3194C196.571 16.3194 195.871 16.1656 195.249 15.858C194.626 15.5505 194.168 15.0968 193.876 14.4971L194.926 13.7704C195.11 14.2395 195.425 14.5932 195.871 14.8315C196.325 15.0699 196.859 15.1891 197.475 15.1891C198.113 15.1891 198.597 15.0776 198.928 14.8546C199.258 14.6239 199.424 14.3356 199.424 13.9896C199.424 13.682 199.27 13.4321 198.962 13.2399C198.647 13.0553 198.097 12.8939 197.313 12.7555C196.537 12.6094 195.921 12.4402 195.468 12.248C195.022 12.0481 194.695 11.7943 194.487 11.4867C194.28 11.1792 194.176 10.7986 194.176 10.3449C194.176 9.90662 194.307 9.50294 194.568 9.13386C194.83 8.76478 195.202 8.47259 195.687 8.2573C196.171 8.03431 196.729 7.92282 197.359 7.92282C198.22 7.92282 198.912 8.08044 199.435 8.3957C199.958 8.71864 200.331 9.20691 200.554 9.86049L199.458 10.5064C199.289 9.9912 199.028 9.61828 198.674 9.3876C198.328 9.16462 197.89 9.05312 197.359 9.05312C196.836 9.05312 196.39 9.17231 196.021 9.41067C195.652 9.64903 195.468 9.922 195.468 10.2296C195.468 10.5833 195.629 10.8601 195.952 11.06C196.267 11.2522 196.833 11.4175 197.648 11.5559C198.77 11.7405 199.562 12.0135 200.024 12.3748C200.485 12.7439 200.716 13.2629 200.716 13.9319C200.716 14.3932 200.581 14.8046 200.312 15.166C200.035 15.5274 199.643 15.8081 199.135 16.008C198.62 16.2156 198.024 16.3194 197.348 16.3194ZM206.517 7.92282C207.732 7.92282 208.689 8.29574 209.389 9.04159C210.081 9.77975 210.427 10.8063 210.427 12.1211C210.427 13.4359 210.081 14.4625 209.389 15.2006C208.689 15.9465 207.732 16.3194 206.517 16.3194C205.302 16.3194 204.349 15.9465 203.657 15.2006C202.957 14.4625 202.607 13.4359 202.607 12.1211C202.607 10.8063 202.957 9.77975 203.657 9.04159C204.349 8.29574 205.302 7.92282 206.517 7.92282ZM206.517 9.04159C205.702 9.04159 205.06 9.31456 204.591 9.86049C204.13 10.4064 203.899 11.16 203.899 12.1211C203.899 13.0822 204.13 13.8358 204.591 14.3817C205.06 14.9276 205.702 15.2006 206.517 15.2006C207.332 15.2006 207.974 14.9276 208.443 14.3817C208.905 13.8358 209.135 13.0822 209.135 12.1211C209.135 11.16 208.905 10.4064 208.443 9.86049C207.974 9.31456 207.332 9.04159 206.517 9.04159ZM216.851 7.92282C217.766 7.92282 218.52 8.18809 219.112 8.71865C219.704 9.24151 220 9.99889 220 10.9908V16.1579H218.708V11.4406C218.708 10.6025 218.528 9.99505 218.166 9.61828C217.805 9.24151 217.324 9.05312 216.724 9.05312C216.294 9.05312 215.89 9.14539 215.513 9.32993C215.137 9.52216 214.825 9.82973 214.579 10.2526C214.341 10.6832 214.222 11.2215 214.222 11.8674V16.1579H212.93V8.08429H214.06L214.141 9.34147C214.41 8.85705 214.779 8.4995 215.248 8.26883C215.725 8.03815 216.259 7.92282 216.851 7.92282Z" fill="#12292A"/>
<path d="M71.4731 1.40036C71.4731 0.933917 71.0948 0.555641 70.6284 0.555641H66.9865C66.5193 0.555641 66.1411 0.933917 66.1411 1.40036V3.02348L71.4731 6.80247V1.40036ZM9.76434 12.7833H8.44339C8.4023 12.7833 8.36161 12.7914 8.32366 12.8072C8.28571 12.823 8.25125 12.8461 8.22227 12.8752C8.19328 12.9043 8.17033 12.9389 8.15474 12.9769C8.13915 13.015 8.13123 13.0557 8.13143 13.0968V14.0108C8.13143 14.1841 8.27159 14.3235 8.44339 14.3235H9.76434C9.80538 14.3235 9.846 14.3154 9.8839 14.2997C9.9218 14.284 9.95623 14.2609 9.9852 14.2319C10.0142 14.2029 10.0371 14.1684 10.0528 14.1304C10.0684 14.0925 10.0764 14.0519 10.0763 14.0108V13.0968C10.0765 13.0557 10.0686 13.015 10.053 12.9769C10.0374 12.9389 10.0145 12.9043 9.98547 12.8752C9.95648 12.8461 9.92203 12.823 9.88408 12.8072C9.84613 12.7914 9.80544 12.7833 9.76434 12.7833ZM12.5366 12.7833H11.2157C11.1746 12.7834 11.1339 12.7916 11.096 12.8074C11.0581 12.8232 11.0237 12.8463 10.9948 12.8754C10.9658 12.9045 10.9428 12.9391 10.9272 12.977C10.9116 13.015 10.9036 13.0557 10.9037 13.0968V14.0108C10.9037 14.1841 11.0446 14.3235 11.2157 14.3235H12.5366C12.5776 14.3235 12.6183 14.3154 12.6562 14.2997C12.6941 14.284 12.7285 14.2609 12.7575 14.2319C12.7864 14.2029 12.8094 14.1684 12.825 14.1304C12.8407 14.0925 12.8487 14.0519 12.8486 14.0108V13.0968C12.8487 13.0557 12.8407 13.015 12.8251 12.977C12.8094 12.9391 12.7865 12.9045 12.7575 12.8754C12.7285 12.8463 12.6941 12.8232 12.6562 12.8074C12.6183 12.7916 12.5777 12.7834 12.5366 12.7833V12.7833ZM15.3081 12.7833H13.9872C13.9461 12.7833 13.9054 12.7914 13.8674 12.8072C13.8295 12.823 13.795 12.8461 13.766 12.8752C13.7371 12.9043 13.7141 12.9389 13.6985 12.9769C13.6829 13.015 13.675 13.0557 13.6752 13.0968V14.0108C13.6752 14.1841 13.8154 14.3235 13.9872 14.3235H15.3081C15.3492 14.3235 15.3898 14.3154 15.4277 14.2997C15.4656 14.284 15.5 14.2609 15.529 14.2319C15.558 14.2029 15.5809 14.1684 15.5966 14.1304C15.6122 14.0925 15.6202 14.0519 15.6201 14.0108V13.0968C15.6204 13.0557 15.6125 13.0149 15.597 12.9768C15.5814 12.9387 15.5585 12.9041 15.5295 12.875C15.5005 12.8458 15.466 12.8227 15.428 12.807C15.39 12.7913 15.3492 12.7832 15.3081 12.7833ZM16.7602 14.3235H18.0804C18.1214 14.3235 18.1621 14.3154 18.1999 14.2997C18.2378 14.284 18.2723 14.2609 18.3013 14.2319C18.3302 14.2029 18.3532 14.1684 18.3688 14.1304C18.3845 14.0925 18.3925 14.0519 18.3924 14.0108V13.0968C18.3925 13.0557 18.3845 13.015 18.3688 12.977C18.3532 12.9391 18.3303 12.9045 18.3013 12.8754C18.2723 12.8463 18.2379 12.8232 18.2 12.8074C18.1621 12.7916 18.1215 12.7834 18.0804 12.7833H16.7602C16.719 12.7832 16.6783 12.7913 16.6402 12.807C16.6022 12.8227 16.5676 12.8458 16.5386 12.8749C16.5095 12.9041 16.4865 12.9387 16.4709 12.9768C16.4552 13.0148 16.4473 13.0556 16.4475 13.0968V14.0108C16.4475 14.1841 16.5869 14.3235 16.7602 14.3235Z" fill="url(#paint0_linear)"/>
<path d="M74.5114 21.2794H71.2983V10.5061H73.69C73.766 10.5058 73.8399 10.4815 73.9011 10.4365C73.9623 10.3915 74.0076 10.3283 74.0306 10.2559C74.0536 10.1835 74.0529 10.1056 74.0288 10.0336C74.0047 9.96157 73.9584 9.89905 73.8965 9.85505L63.6137 2.4425C63.0169 2.01976 62.4427 1.79219 61.5686 1.79219C60.6952 1.79219 59.6697 2.49675 59.6697 2.49675H15.2712C15.2712 2.49675 14.3361 1.79219 13.2728 1.79219C12.2088 1.79219 11.8735 2.17348 11.2737 2.51936L0.890682 10.0133C0.642768 10.1339 0.728672 10.5061 1.00371 10.5061H3.92518V21.2802H0.843963C0.733069 21.2802 0.623262 21.3021 0.520818 21.3445C0.418375 21.387 0.325304 21.4492 0.246925 21.5277C0.168546 21.6061 0.106396 21.6992 0.0640268 21.8017C0.021658 21.9042 -9.86762e-05 22.014 3.36432e-07 22.1249V22.5996C-9.86762e-05 22.7105 0.021658 22.8204 0.0640268 22.9228C0.106396 23.0253 0.168546 23.1185 0.246925 23.1969C0.325304 23.2754 0.418375 23.3376 0.520818 23.38C0.623262 23.4225 0.733069 23.4444 0.843963 23.4444H74.5114C74.7351 23.444 74.9495 23.3548 75.1074 23.1964C75.2654 23.038 75.354 22.8233 75.3538 22.5996V22.1249C75.3538 21.6577 74.977 21.2794 74.5114 21.2794V21.2794ZM19.4322 21.2794H6.81274V12.7599C7.77807 11.7327 8.98109 10.9584 10.3159 10.5054C11.3477 10.1527 12.4369 9.99827 13.526 10.0502C14.3406 10.0879 15.1491 10.2386 15.9283 10.5054C17.2629 10.9586 18.4656 11.7328 19.4307 12.7599C19.4322 15.6015 19.4322 18.4416 19.4322 21.2794V21.2794ZM20.3681 10.5332H18.6493L13.2517 6.90269L7.85413 10.5332H6.13455C6.09006 10.5331 6.04664 10.5196 6.0099 10.4945C5.97316 10.4694 5.9448 10.4338 5.92849 10.3925C5.91217 10.3511 5.90866 10.3057 5.91839 10.2623C5.92813 10.2189 5.95067 10.1794 5.98309 10.1489L12.841 5.15599C12.9526 5.05179 13.0995 4.99383 13.2521 4.99383C13.4047 4.99383 13.5516 5.05179 13.6632 5.15599L20.5211 10.1489C20.5536 10.1795 20.5762 10.2191 20.5859 10.2627C20.5956 10.3062 20.5919 10.3517 20.5754 10.3932C20.5589 10.4346 20.5303 10.4701 20.4934 10.4951C20.4564 10.5201 20.4128 10.5334 20.3681 10.5332V10.5332ZM26.9676 17.2375C26.9677 17.3114 26.9532 17.3847 26.925 17.453C26.8967 17.5213 26.8553 17.5834 26.803 17.6357C26.7507 17.688 26.6886 17.7295 26.6203 17.7577C26.5519 17.786 26.4787 17.8005 26.4047 17.8004H24.0281C23.9541 17.8005 23.8809 17.786 23.8125 17.7577C23.7442 17.7295 23.6821 17.688 23.6298 17.6357C23.5775 17.5834 23.5361 17.5213 23.5078 17.453C23.4796 17.3847 23.4651 17.3114 23.4652 17.2375V15.5887C23.4652 15.2783 23.7169 15.0266 24.0281 15.0266H26.4047C26.7159 15.0266 26.9676 15.2783 26.9676 15.5887V17.2375ZM26.9676 13.573C26.9677 13.647 26.9532 13.7202 26.925 13.7885C26.8967 13.8569 26.8553 13.919 26.803 13.9713C26.7507 14.0235 26.6886 14.065 26.6203 14.0933C26.5519 14.1215 26.4787 14.136 26.4047 14.1359H24.0281C23.9541 14.136 23.8809 14.1215 23.8125 14.0933C23.7442 14.065 23.6821 14.0235 23.6298 13.9713C23.5775 13.919 23.5361 13.8569 23.5078 13.7885C23.4796 13.7202 23.4651 13.647 23.4652 13.573V11.925C23.4652 11.6146 23.7169 11.3621 24.0281 11.3621H26.4047C26.7159 11.3621 26.9676 11.6146 26.9676 11.925V13.573ZM31.2884 17.2375C31.2884 17.3868 31.2291 17.5299 31.1235 17.6355C31.018 17.7411 30.8748 17.8004 30.7255 17.8004H28.3474C28.2735 17.8004 28.2003 17.7858 28.1321 17.7575C28.0638 17.7292 28.0018 17.6877 27.9496 17.6354C27.8974 17.5832 27.856 17.5211 27.8278 17.4528C27.7996 17.3845 27.7851 17.3113 27.7852 17.2375V15.5887C27.7852 15.2783 28.0369 15.0266 28.3474 15.0266H30.7255C31.036 15.0266 31.2884 15.2783 31.2884 15.5887V17.2375ZM31.2884 13.573C31.2884 13.7223 31.2291 13.8655 31.1235 13.971C31.018 14.0766 30.8748 14.1359 30.7255 14.1359H28.3474C28.2735 14.1359 28.2003 14.1213 28.1321 14.093C28.0638 14.0647 28.0018 14.0233 27.9496 13.971C27.8974 13.9187 27.856 13.8567 27.8278 13.7884C27.7996 13.7201 27.7851 13.6469 27.7852 13.573V11.925C27.7852 11.6146 28.0369 11.3621 28.3474 11.3621H30.7255C31.036 11.3621 31.2884 11.6146 31.2884 11.925V13.573ZM39.4289 17.2375C39.4289 17.3868 39.3696 17.5299 39.264 17.6355C39.1585 17.7411 39.0153 17.8004 38.866 17.8004H36.4878C36.4139 17.8004 36.3408 17.7858 36.2725 17.7575C36.2043 17.7292 36.1423 17.6877 36.0901 17.6354C36.0379 17.5832 35.9965 17.5211 35.9683 17.4528C35.9401 17.3845 35.9256 17.3113 35.9257 17.2375V15.5887C35.9257 15.2783 36.1774 15.0266 36.4878 15.0266H38.866C39.1764 15.0266 39.4289 15.2783 39.4289 15.5887V17.2375ZM39.4289 13.573C39.4289 13.7223 39.3696 13.8655 39.264 13.971C39.1585 14.0766 39.0153 14.1359 38.866 14.1359H36.4878C36.4139 14.1359 36.3408 14.1213 36.2725 14.093C36.2043 14.0647 36.1423 14.0233 36.0901 13.971C36.0379 13.9187 35.9965 13.8567 35.9683 13.7884C35.9401 13.7201 35.9256 13.6469 35.9257 13.573V11.925C35.9257 11.6146 36.1774 11.3621 36.4878 11.3621H38.866C39.1764 11.3621 39.4289 11.6146 39.4289 11.925V13.573ZM43.7497 17.2375C43.7497 17.3114 43.7351 17.3847 43.7067 17.453C43.6784 17.5214 43.6369 17.5835 43.5845 17.6358C43.5322 17.688 43.47 17.7295 43.4017 17.7577C43.3333 17.786 43.26 17.8005 43.186 17.8004H40.8086C40.7347 17.8004 40.6616 17.7858 40.5933 17.7575C40.5251 17.7292 40.4631 17.6877 40.4109 17.6354C40.3586 17.5832 40.3173 17.5211 40.289 17.4528C40.2608 17.3845 40.2464 17.3113 40.2465 17.2375V15.5887C40.2465 15.2783 40.4982 15.0266 40.8086 15.0266H43.186C43.498 15.0266 43.7497 15.2783 43.7497 15.5887V17.2375ZM43.7497 13.573C43.7497 13.647 43.7351 13.7203 43.7067 13.7886C43.6784 13.8569 43.6369 13.919 43.5845 13.9713C43.5322 14.0236 43.47 14.065 43.4017 14.0933C43.3333 14.1215 43.26 14.136 43.186 14.1359H40.8086C40.7347 14.1359 40.6616 14.1213 40.5933 14.093C40.5251 14.0647 40.4631 14.0233 40.4109 13.971C40.3586 13.9187 40.3173 13.8567 40.289 13.7884C40.2608 13.7201 40.2464 13.6469 40.2465 13.573V11.925C40.2465 11.6146 40.4982 11.3621 40.8086 11.3621H43.186C43.498 11.3621 43.7497 11.6146 43.7497 11.925V13.573ZM52.6806 21.3141H47.6862V12.5716C48.0063 12.2301 48.3931 11.9579 48.8227 11.7719C49.2522 11.5858 49.7153 11.4898 50.1834 11.4898C50.6515 11.4898 51.1146 11.5858 51.5441 11.7719C51.9736 11.9579 52.3604 12.2301 52.6806 12.5716V21.3141V21.3141ZM61.7638 17.2375C61.7638 17.3868 61.7044 17.5299 61.5989 17.6355C61.4933 17.7411 61.3502 17.8004 61.2009 17.8004H58.8234C58.7496 17.8004 58.6764 17.7858 58.6082 17.7575C58.5399 17.7292 58.4779 17.6877 58.4257 17.6354C58.3735 17.5832 58.3321 17.5211 58.3039 17.4528C58.2757 17.3845 58.2612 17.3113 58.2613 17.2375V15.5887C58.2613 15.2783 58.513 15.0266 58.8234 15.0266H61.2009C61.5113 15.0266 61.7638 15.2783 61.7638 15.5887V17.2375ZM61.7638 13.573C61.7638 13.7223 61.7044 13.8655 61.5989 13.971C61.4933 14.0766 61.3502 14.1359 61.2009 14.1359H58.8234C58.7496 14.1359 58.6764 14.1213 58.6082 14.093C58.5399 14.0647 58.4779 14.0233 58.4257 13.971C58.3735 13.9187 58.3321 13.8567 58.3039 13.7884C58.2757 13.7201 58.2612 13.6469 58.2613 13.573V11.925C58.2613 11.6146 58.513 11.3621 58.8234 11.3621H61.2009C61.5113 11.3621 61.7638 11.6146 61.7638 11.925V13.573ZM66.0845 17.2375C66.0845 17.3114 66.07 17.3847 66.0416 17.453C66.0133 17.5214 65.9718 17.5835 65.9194 17.6358C65.8671 17.688 65.8049 17.7295 65.7365 17.7577C65.6682 17.786 65.5949 17.8005 65.5209 17.8004H63.1435C63.0696 17.8004 62.9964 17.7858 62.9282 17.7575C62.8599 17.7292 62.7979 17.6877 62.7457 17.6354C62.6935 17.5832 62.6521 17.5211 62.6239 17.4528C62.5957 17.3845 62.5812 17.3113 62.5813 17.2375V15.5887C62.5813 15.2783 62.833 15.0266 63.1435 15.0266H65.5209C65.8321 15.0266 66.0845 15.2783 66.0845 15.5887V17.2375ZM66.0845 13.573C66.0845 13.647 66.07 13.7203 66.0416 13.7886C66.0133 13.8569 65.9718 13.919 65.9194 13.9713C65.8671 14.0236 65.8049 14.065 65.7365 14.0933C65.6682 14.1215 65.5949 14.136 65.5209 14.1359H63.1435C63.0696 14.1359 62.9964 14.1213 62.9282 14.093C62.8599 14.0647 62.7979 14.0233 62.7457 13.971C62.6935 13.9187 62.6521 13.8567 62.6239 13.7884C62.5957 13.7201 62.5812 13.6469 62.5813 13.573V11.925C62.5813 11.6146 62.833 11.3621 63.1435 11.3621H65.5209C65.8321 11.3621 66.0845 11.6146 66.0845 11.925V13.573ZM69.2713 10.5332H67.5517L62.1541 6.90269L56.7557 10.5332H55.0354C54.9909 10.533 54.9476 10.5194 54.9109 10.4942C54.8743 10.469 54.8461 10.4333 54.83 10.3919C54.8139 10.3504 54.8106 10.3051 54.8207 10.2617C54.8307 10.2184 54.8535 10.1791 54.8862 10.1489L61.7434 5.15599C61.8548 5.05184 62.0016 4.99391 62.1541 4.99391C62.3066 4.99391 62.4534 5.05184 62.5648 5.15599L69.4235 10.1489C69.5681 10.2868 69.4709 10.5332 69.2713 10.5332V10.5332Z" fill="url(#paint1_linear)"/>
<defs>
<linearGradient id="paint0_linear" x1="7.36957" y1="3.99213" x2="64.7766" y2="30.7615" gradientUnits="userSpaceOnUse">
<stop stop-color="#122663"/>
<stop offset="1" stop-color="#5DD7AD"/>
</linearGradient>
<linearGradient id="paint1_linear" x1="-0.522591" y1="1.67634" x2="67.7712" y2="33.5222" gradientUnits="userSpaceOnUse">
<stop stop-color="#122663"/>
<stop offset="1" stop-color="#5DD7AD"/>
</linearGradient>
</defs>
</svg>
